# xmcd
#
# Track frame offsets: 
#        150
#        19681
#        39003
#        60345
#        79448
#        102867
#        120259
#        143504
#        163806
#        182775
#        201921
#        218681
#
# Disc length: 3190 seconds
#
# Revision: 0
# Processed by: cddbd v1.5.2PL0 Copyright (c) Steve Scherf et al.
# Submitted via: ExactAudioCopy v1.2
#
DISCID=950c740c
DTITLE=裘海正 - 醇经典
DYEAR=2005
DGENRE=Pop
TTITLE0=爱我的人和我爱的人
TTITLE1=爱你十分泪七分
TTITLE2=一颗心住着两个人
TTITLE3=心有千千结
TTITLE4=执迷不悔
TTITLE5=新人旧人
TTITLE6=让每个人都心碎
TTITLE7=你说你比较习惯一个人
TTITLE8=错过了你错过了一生
TTITLE9=不离婚的女人
TTITLE10=新玫瑰玫瑰我爱你
TTITLE11=音乐咖啡失眠的人
EXTD=
EXTT0=
EXTT1=
EXTT2=
EXTT3=
EXTT4=
EXTT5=
EXTT6=
EXTT7=
EXTT8=
EXTT9=
EXTT10=
EXTT11=
PLAYORDER=
